<mxfile host="app.diagrams.net" modified="2024-04-03T22:01:22.843Z" agent="Mozilla/5.0 (Windows NT 10.0; Win64; x64) AppleWebKit/537.36 (KHTML, like Gecko) Chrome/123.0.0.0 Safari/537.36" etag="MfAHS0F2ecponnMUaeAX" version="24.2.2" type="github">
  <diagram name="Página-1" id="DwFYq6pjMkJ_6RpDLDGX">
    <mxGraphModel dx="1434" dy="780" grid="1" gridSize="10" guides="1" tooltips="1" connect="1" arrows="1" fold="1" page="1" pageScale="1" pageWidth="827" pageHeight="1169" math="0" shadow="0">
      <root>
        <mxCell id="0" />
        <mxCell id="1" parent="0" />
        <mxCell id="Fp2csAvYDDrtXc2ES6os-1" value="inicio" style="ellipse;whiteSpace=wrap;html=1;" vertex="1" parent="1">
          <mxGeometry x="110" y="110" width="120" height="30" as="geometry" />
        </mxCell>
        <mxCell id="Fp2csAvYDDrtXc2ES6os-2" value="fim" style="ellipse;whiteSpace=wrap;html=1;" vertex="1" parent="1">
          <mxGeometry x="110" y="620" width="120" height="35" as="geometry" />
        </mxCell>
        <mxCell id="Fp2csAvYDDrtXc2ES6os-4" value="2- pretende-se calcular as ajudas de custo a pagar aos funcionários&amp;nbsp;" style="text;html=1;align=left;verticalAlign=middle;whiteSpace=wrap;rounded=0;" vertex="1" parent="1">
          <mxGeometry x="1" y="20" width="730" height="30" as="geometry" />
        </mxCell>
      </root>
    </mxGraphModel>
  </diagram>
</mxfile>
